<?xml version="1.0" encoding="UTF-8" standalone="no"?><!DOCTYPE svg PUBLIC "-//W3C//DTD SVG 1.1//EN" "http://www.w3.org/Graphics/SVG/1.1/DTD/svg11.dtd"><svg width="100%" height="100%" viewBox="0 0 600 600" version="1.1" xmlns="http://www.w3.org/2000/svg" xmlns:xlink="http://www.w3.org/1999/xlink" xml:space="preserve" xmlns:serif="http://www.serif.com/" style="fill-rule:evenodd;clip-rule:evenodd;stroke-linecap:round;stroke-linejoin:round;stroke-miterlimit:1.5;"><rect id="Монтажная-область1" serif:id="Монтажная область1" x="0" y="0" width="600" height="600" style="fill:none;"/><g id="Монтажная-область11" serif:id="Монтажная область1"><g><g><g><path d="M502.813,376.723c-0,0 29.398,24.926 26.295,47.965c-3.104,23.04 -23.121,25.023 -27.552,7.836c-4.43,-17.188 -10.085,-32.959 -22.76,-39.468c-12.675,-6.508 5.619,-32.241 24.017,-16.333Z" style="fill:#d6c295;stroke:#000;stroke-width:7.76px;"/><path d="M259.732,236.819c-0.709,-4.254 -9.412,-10.758 -13.029,-12.231c-44.001,-17.921 -28.578,32.537 -2.961,30.539" style="fill:#61e0ee;"/><path d="M264.837,235.968c-0.335,-2.012 -1.605,-4.455 -3.653,-6.796c-3.574,-4.087 -9.541,-8.16 -12.528,-9.377c-16.124,-6.567 -25.736,-4.356 -30.418,0.125c-4.932,4.723 -5.762,12.843 -2.531,20.854c4.273,10.592 15.361,20.533 28.438,19.513c2.847,-0.222 4.979,-2.715 4.757,-5.562c-0.222,-2.848 -2.715,-4.98 -5.562,-4.758c-8.444,0.659 -15.275,-6.226 -18.034,-13.066c-0.858,-2.129 -1.327,-4.273 -1.2,-6.208c0.084,-1.282 0.421,-2.463 1.29,-3.295c1.128,-1.08 2.919,-1.502 5.328,-1.491c3.602,0.017 8.217,1.108 14.027,3.475c1.787,0.727 5.04,3.007 7.516,5.423c0.751,0.733 1.43,1.477 1.937,2.206c0.174,0.25 0.387,0.44 0.423,0.659c0.47,2.817 3.138,4.724 5.956,4.254c2.818,-0.47 4.724,-3.138 4.254,-5.956Z"/><path d="M463.112,565.166c-0,-0 -2.104,-38.485 -22.339,-49.931c-20.234,-11.445 -33.908,3.309 -22.888,17.223c11.02,13.913 20.173,27.947 17.702,41.98c-2.471,14.032 29.088,14.999 27.525,-9.272Z" style="fill:#d6c295;stroke:#000;stroke-width:7.76px;"/><path d="M289.016,569.642c0,0 20.371,-32.719 10.374,-53.707c-9.998,-20.988 -29.663,-16.757 -28.628,0.962c1.036,17.719 0.473,34.464 -9.606,44.535c-10.079,10.072 15.206,28.981 27.86,8.21Z" style="fill:#d6c295;stroke:#000;stroke-width:7.76px;"/><path d="M498.128,203.668c4.038,1.513 8.39,-1.031 11.474,-3.426c37.521,-29.146 -13.756,-40.823 -24.834,-17.639" style="fill:#61e0ee;"/><path d="M496.312,208.515c5.73,2.146 12.09,-0.787 16.465,-4.186c13.747,-10.678 16.651,-20.088 15.131,-26.352c-1.606,-6.62 -8.21,-11.38 -16.762,-12.553c-11.272,-1.547 -25.395,3.118 -31.048,14.948c-1.231,2.577 -0.139,5.669 2.439,6.901c2.577,1.231 5.669,0.139 6.901,-2.439c3.653,-7.645 13.016,-10.155 20.301,-9.155c2.26,0.31 4.338,0.963 5.939,2.027c1.051,0.699 1.892,1.563 2.171,2.711c0.365,1.507 -0.171,3.257 -1.386,5.33c-1.821,3.107 -5.078,6.556 -10.036,10.408c-1.16,0.901 -2.542,1.862 -4.031,2.423c-0.799,0.302 -1.636,0.549 -2.452,0.244c-2.675,-1.002 -5.66,0.356 -6.662,3.031c-1.003,2.675 0.356,5.66 3.03,6.662Z"/><path d="M495.687,510.342c0,0 19.502,-38.339 15.817,-71.226c-11.536,-102.952 18.769,-123.15 6.92,-185.95c-4.114,-21.806 -11.89,-46.642 -25.134,-64.694c-29.106,-39.675 -85.05,-60.283 -133.71,-50.966c-19.484,3.731 -37.077,12.166 -54.489,21.416c-60.579,32.181 -73.165,100.1 -65.293,157.344c3.485,25.342 25.273,64.836 22.086,90.249c-6.645,52.972 -4.786,81.645 11.753,115.815c14.096,29.123 68.954,51.063 128.929,44.827c10.219,-1.062 71.365,-11.778 93.121,-56.815Z" style="fill:#61e0ee;"/><clipPath id="_clip1"><path d="M495.687,510.342c0,0 19.502,-38.339 15.817,-71.226c-11.536,-102.952 18.769,-123.15 6.92,-185.95c-4.114,-21.806 -11.89,-46.642 -25.134,-64.694c-29.106,-39.675 -85.05,-60.283 -133.71,-50.966c-19.484,3.731 -37.077,12.166 -54.489,21.416c-60.579,32.181 -73.165,100.1 -65.293,157.344c3.485,25.342 25.273,64.836 22.086,90.249c-6.645,52.972 -4.786,81.645 11.753,115.815c14.096,29.123 68.954,51.063 128.929,44.827c10.219,-1.062 71.365,-11.778 93.121,-56.815Z"/></clipPath><g clip-path="url(#_clip1)"><path d="M279.167,183.854c-0,0 -20.112,49.053 -7.849,88.785c12.263,39.733 33.846,95.162 30.413,150.591c-3.434,55.429 2.452,91.237 14.715,106.934c24.765,31.699 92.219,36.298 109.387,31.393c17.168,-4.905 -67.692,17.659 -116.254,-1.962c-48.562,-19.621 -55.429,-102.029 -49.052,-153.534c6.376,-51.504 -34.827,-66.22 -21.093,-155.005c22.074,-51.995 22.564,-49.052 39.733,-67.202Z" style="fill:#4fcbe0;"/><path d="M360.178,259.986c0,0 -6.027,30.138 -41.942,28.38c-35.914,-1.758 -38.425,-38.426 -38.425,-38.426l80.367,10.046Z" style="fill:#4fcbe0;"/><path d="M513.786,244.666c0,0 -6.027,30.138 -41.941,28.38c-35.914,-1.758 -38.426,-38.426 -38.426,-38.426l80.367,10.046Z" style="fill:#4fcbe0;"/></g><path d="M500.33,512.629c0.865,-1.731 20.066,-40.634 16.317,-74.089c-6.84,-61.04 1.236,-92.64 6.237,-121.558c3.473,-20.081 5.504,-38.921 0.626,-64.776c-4.25,-22.525 -12.366,-48.148 -26.047,-66.796c-30.231,-41.207 -88.316,-62.665 -138.856,-52.987c-19.998,3.829 -38.074,12.435 -55.944,21.928c-62.68,33.297 -76.137,103.39 -67.992,162.62c1.778,12.934 8.171,29.496 13.769,46.051c5.209,15.404 9.822,30.78 8.308,42.849c-6.812,54.307 -4.725,83.683 12.23,118.714c6.056,12.511 18.973,23.952 36.588,32.552c25.333,12.368 60.481,19.021 97.536,15.168c6.355,-0.661 31.72,-4.9 55.861,-18.288c16.399,-9.094 32.183,-22.385 41.377,-41.408l-0.01,0.02Zm-9.256,-4.633c-0.016,0.032 -0.032,0.063 -0.047,0.095c-8.211,16.998 -22.433,28.749 -37.084,36.874c-22.44,12.444 -46.005,16.43 -51.912,17.044c-34.915,3.631 -68.053,-2.52 -91.924,-14.174c-15.187,-7.414 -26.59,-16.973 -31.812,-27.76c-16.122,-33.309 -17.753,-61.278 -11.276,-112.916c1.352,-10.779 -1.395,-23.968 -5.581,-37.61c-5.835,-19.017 -14.452,-39.003 -16.513,-53.988c-7.599,-55.26 4.116,-121.003 62.594,-152.068c16.954,-9.007 34.063,-17.271 53.034,-20.904c46.78,-8.957 100.583,10.802 128.564,48.944c12.807,17.457 20.243,41.506 24.222,62.592c5.781,30.645 1.19,50.891 -3.351,76.039c-4.718,26.126 -9.476,57.34 -3.627,109.529c3.535,31.548 -15.287,68.303 -15.287,68.303Z"/><path d="M395.48,545.938c61.117,-10.648 75.63,-39.106 79.15,-52.095c6.633,-24.466 9.846,-71.892 3.886,-97.112c-2.069,-8.757 -5.98,-18.73 -12.642,-25.98c-14.64,-15.933 -80.112,-17.319 -104.587,-13.577c-9.8,1.498 -18.649,4.886 -27.407,8.6c-30.47,12.924 -40.951,162.398 16.877,176.978c15.444,3.894 35.024,4.876 44.723,3.186Z" style="fill:#b7f8ff;"/><circle cx="501.415" cy="281.185" r="4.274" style="fill:#b7f8ff;"/><circle cx="289.216" cy="288.948" r="4.274" style="fill:#b7f8ff;"/><g><path d="M423.02,305.395c-1.937,6.136 -3.098,17.851 -7.076,22.739c-1.928,2.37 -5.835,2.218 -8.382,2.121c-14.628,-0.561 -13.351,-15.497 -14.604,-28.652" style="fill:#ededed;"/><path d="M419.319,304.226c-1.174,3.718 -2.073,9.462 -3.466,14.53c-0.759,2.761 -1.607,5.315 -2.919,6.928c-0.365,0.448 -0.982,0.51 -1.563,0.603c-1.271,0.204 -2.607,0.129 -3.66,0.089c-2.589,-0.099 -4.508,-0.734 -5.894,-1.926c-1.42,-1.223 -2.256,-2.956 -2.861,-4.933c-1.598,-5.227 -1.533,-11.972 -2.134,-18.282c-0.203,-2.133 -2.099,-3.699 -4.232,-3.496c-2.133,0.203 -3.699,2.099 -3.496,4.232c0.651,6.845 0.704,14.146 2.438,19.816c1.062,3.471 2.726,6.399 5.22,8.546c2.529,2.177 5.935,3.619 10.661,3.801c1.849,0.07 4.286,0.113 6.447,-0.442c2.008,-0.516 3.795,-1.51 5.095,-3.108c1.87,-2.298 3.303,-5.838 4.383,-9.77c1.366,-4.969 2.233,-10.605 3.384,-14.25c0.645,-2.043 -0.49,-4.226 -2.533,-4.871c-2.043,-0.645 -4.225,0.49 -4.87,2.533Z"/><path d="M407.214,259.827c-11.841,0.729 -21.079,7.432 -20.615,14.96c0.463,7.528 10.452,13.048 22.293,12.319c11.841,-0.728 21.079,-7.431 20.615,-14.959c-0.463,-7.528 -10.452,-13.048 -22.293,-12.32Z"/><path d="M405.427,283.07c0.111,6.581 1.219,12.899 1.711,19.42c0.161,2.137 2.027,3.74 4.163,3.579c2.136,-0.161 3.74,-2.026 3.579,-4.163c-0.481,-6.37 -1.582,-12.539 -1.691,-18.968c-0.037,-2.142 -1.805,-3.852 -3.947,-3.815c-2.142,0.036 -3.852,1.804 -3.815,3.947Z"/><path d="M436.647,294.475c-10.563,6.005 -20.687,8.407 -30.307,7.024c-9.62,-1.383 -18.668,-6.543 -27.129,-15.313c-1.488,-1.542 -3.947,-1.586 -5.489,-0.099c-1.542,1.488 -1.586,3.947 -0.098,5.489c9.828,10.187 20.438,16.001 31.611,17.607c11.174,1.607 22.979,-0.984 35.249,-7.96c1.862,-1.058 2.514,-3.43 1.456,-5.292c-1.059,-1.863 -3.431,-2.515 -5.293,-1.456Z"/><path d="M451.772,159.559c-4.51,-1.367 -8.746,-0.578 -9.455,1.76c-0.708,2.339 2.378,5.347 6.887,6.713c4.51,1.367 8.746,0.578 9.455,-1.761c0.708,-2.338 -2.378,-5.346 -6.887,-6.712Z" style="fill:#b7f8ff;"/><path d="M287.255,179.533c-3.03,3.608 -3.971,7.813 -2.1,9.385c1.871,1.571 5.85,-0.083 8.88,-3.691c3.031,-3.609 3.972,-7.814 2.101,-9.385c-1.871,-1.572 -5.85,0.082 -8.881,3.691Z" style="fill:#b7f8ff;"/><path d="M482.288,175.215c-24.025,-3.422 -46.309,13.306 -49.73,37.332c-3.421,24.025 13.306,46.308 37.332,49.73c24.025,3.421 46.308,-13.307 49.73,-37.332c3.421,-24.025 -13.306,-46.309 -37.332,-49.73Z" style="fill:#fff;stroke:#000;stroke-width:7.76px;"/><path d="M327.315,188.091c-24.025,-3.421 -46.309,13.306 -49.73,37.332c-3.422,24.025 13.306,46.308 37.332,49.73c24.025,3.421 46.308,-13.306 49.73,-37.332c3.421,-24.025 -13.307,-46.308 -37.332,-49.73Z" style="fill:#fff;stroke:#000;stroke-width:7.76px;"/><path d="M473.119,212.528c-8.534,-1.215 -16.449,4.727 -17.664,13.26c-1.215,8.534 4.726,16.449 13.26,17.664c8.533,1.215 16.448,-4.726 17.664,-13.26c1.215,-8.533 -4.727,-16.448 -13.26,-17.664Z"/><path d="M320.295,223.525c-8.534,-1.215 -16.449,4.726 -17.664,13.26c-1.215,8.534 4.726,16.448 13.26,17.664c8.533,1.215 16.448,-4.727 17.663,-13.26c1.216,-8.534 -4.726,-16.449 -13.259,-17.664Z"/><path d="M474.414,219.037c-2.396,-0.341 -4.618,1.327 -4.96,3.723c-0.341,2.396 1.327,4.618 3.723,4.96c2.396,0.341 4.619,-1.327 4.96,-3.723c0.341,-2.396 -1.327,-4.618 -3.723,-4.96Z" style="fill:#fff;"/><path d="M321.59,230.034c-2.396,-0.341 -4.618,1.327 -4.96,3.723c-0.341,2.396 1.327,4.618 3.723,4.959c2.396,0.342 4.618,-1.326 4.96,-3.722c0.341,-2.396 -1.327,-4.619 -3.723,-4.96Z" style="fill:#fff;"/></g></g><g><path d="M446.066,112.787c-0.94,-6.469 -6.955,-10.958 -13.424,-10.019l-153.357,22.272c-6.47,0.94 -10.959,6.955 -10.02,13.424l3.405,23.443c0.939,6.47 6.955,10.959 13.424,10.02l153.357,-22.273c6.469,-0.939 10.959,-6.954 10.019,-13.423l-3.404,-23.444Z" style="fill:#9daccd;stroke:#000;stroke-width:8px;"/><path d="M352.914,117.328c-0,-0 101.427,15.157 119.043,-36.417c17.615,-51.573 -19.929,-79.595 -63.889,-61.255c-43.961,18.339 -84.162,70.802 -84.162,70.802c-0,-0 -46.04,-12.442 -63.393,8.011c-17.354,20.453 -26.341,40.886 -3.736,48.362c22.605,7.477 96.137,-29.503 96.137,-29.503Z" style="fill:#735d93;stroke:#000;stroke-width:9.1px;"/><path d="M445.406,147.191c0,-0 59.064,-14.329 56.103,-5.445c-2.961,8.883 -57.752,41.277 -176.197,24.497c107.937,-16.465 120.094,-19.052 120.094,-19.052Z" style="fill:#503a71;stroke:#000;stroke-width:7.59px;"/><path d="M419.626,128.823l-82.891,14.749l-0,8.285l82.891,-14.748l-0,-8.286Z" style="fill:#fff;"/><circle cx="331.863" cy="147.685" r="7.176" style="fill:#ffb25c;stroke:#000;stroke-width:7.59px;"/><circle cx="425.862" cy="132.928" r="6.57" style="fill:#ffb25c;stroke:#000;stroke-width:7.59px;"/></g><g><path d="M516.903,334.366c-0,0 30.731,63.466 -129.209,129.399c-11.581,-4.211 -17.899,-10.528 -17.899,-10.528c0,-0 42.547,-10.789 86.765,-47.277c47.961,-39.577 60.343,-71.594 60.343,-71.594Z" style="fill:#7b4722;stroke:#000;stroke-width:7.59px;"/><path d="M252.387,430.865c2.35,-6.107 8.96,-9.425 15.261,-7.661c26.631,7.414 93.653,26.276 118.295,35.148c10.649,3.835 -5.965,29.949 -18.948,68.635c-2.07,6.243 -8.616,9.823 -14.989,8.197c-44.548,-11.386 -84.307,-22.997 -106.766,-29.756c-4.985,-1.525 -9.113,-5.052 -11.396,-9.739c-2.283,-4.687 -2.516,-10.111 -0.643,-14.976c5.983,-15.551 14.271,-37.081 19.186,-49.848Z" style="fill:#7b4722;stroke:#000;stroke-width:7.59px;"/><path d="M255.571,418.288l-31.481,43.125l133.255,43.556l30.187,-44.418l-131.961,-42.263Z" style="fill:#ad6c4a;stroke:#000;stroke-width:7.59px;"/><circle cx="258.12" cy="450.851" r="7.176" style="fill:#ffb25c;stroke:#000;stroke-width:7.59px;"/><circle cx="346.094" cy="479.744" r="7.176" style="fill:#ffb25c;stroke:#000;stroke-width:7.59px;"/></g><g><path d="M214.303,430.864c0,0 83.98,-102.807 77.866,-113.931c-6.115,-11.123 -177.542,-120.064 -177.542,-120.064c-0,-0 -77.849,97.941 -78.71,113.315c-0.861,15.374 178.386,120.68 178.386,120.68Z" style="fill:#fff2eb;stroke:#000;stroke-width:5.32px;"/><path d="M167.639,312.65l46.664,118.214l-46.664,-118.214Z" style="fill:none;stroke:#000;stroke-width:6.2px;"/><path d="M36.666,310.523l130.973,2.127" style="fill:none;stroke:#000;stroke-width:6.2px;"/><path d="M291.906,319.326l-117.8,5.377" style="fill:none;stroke:#000;stroke-width:6.2px;"/><path d="M150.36,312.64l-35.424,-114.273" style="fill:none;stroke:#000;stroke-width:6.2px;"/></g><path d="M227.035,368.015c-0,-0 24.119,30.063 47.234,27.586c23.115,-2.477 25.64,-22.434 8.58,-27.329c-17.061,-4.895 -32.674,-10.975 -38.836,-23.822c-6.162,-12.847 -32.382,4.742 -16.978,23.565Z" style="fill:#d6c295;stroke:#000;stroke-width:7.76px;"/></g></g></g></svg>